<svg xmlns="http://www.w3.org/2000/svg" viewBox="0 0 2198.97 2499.14"><defs><style>.cls-1{fill:#a3a29f;}.cls-2{fill:#ddd;}.cls-3{fill:#e32c51;}</style></defs><g id="Calque_2" data-name="Calque 2"><g id="Capa_1" data-name="Capa 1"><path class="cls-1" d="M0,0,204.11,2247l893.66,252.14,898.8-253.86L2199,.86ZM1831,2124.36l-723,198.11v-3l-6.85,1.86V198.67h900.51l-.1,1.16h.1Z"/><polygon class="cls-2" points="2001.61 199.83 1831.04 2123.2 1108.05 2319.45 1101.2 199.83 2001.61 199.83"/><path class="cls-3" d="M1790.08,523.4l-25.93,228.48a.72.72,0,0,1-.6.62.71.71,0,0,1-.76-.41L1188.71,987.34a18.5,18.5,0,0,0,7,35.62h446.53a83.74,83.74,0,0,1,83.27,92.61l-69.77,654.51a83.75,83.75,0,0,1-55.47,70.11l-474,166.77a83.66,83.66,0,0,1-55.2.13L599.37,1843.68a83.75,83.75,0,0,1-55.86-70.23L511.88,1477a55.16,55.16,0,0,1,54.86-61H698a55.15,55.15,0,0,1,54.85,49.31l19.41,182.2,326.64,113.54,328.14-114.57,40.13-377.87H539.4a55.16,55.16,0,0,1-54.83-49.12L466.9,1059.36a55.17,55.17,0,0,1,33.8-57L1094.49,757.5a15.25,15.25,0,0,0-5.8-29.35H463.51a36.77,36.77,0,0,1-36.57-32.93L408.85,523.09a36.79,36.79,0,0,1,36.57-40.61H1753.55a36.76,36.76,0,0,1,36.53,40.92Z"/></g></g></svg>