<svg xmlns="http://www.w3.org/2000/svg" viewBox="0 0 2198.97 2499.14"><defs><style>.cls-1{fill:#00057f;}.cls-2{fill:#a3a29f;}.cls-3{fill:#ddd;}.cls-4{fill:#e32c51;}</style></defs><g id="Calque_2" data-name="Calque 2"><g id="Layer_1" data-name="Layer 1"><polygon class="cls-1" points="1101.2 199.83 1108.05 2319.45 1101.2 2321.31 1101.2 199.83"/><polygon class="cls-1" points="2001.61 199.83 2001.71 199.83 1831.04 2124.36 1108.06 2322.47 1108.05 2319.45 1831.04 2123.2 2001.61 199.83"/><polygon class="cls-1" points="2001.61 199.83 1101.2 199.83 1101.2 198.67 2001.71 198.67 2001.61 199.83"/><path id="path5113" class="cls-2" d="M1101.2,199.83V2321.31l6.85-1.86Zm0-1.16v1.16h900.41l.1-1.16Z"/><path class="cls-2" d="M0,0,204.11,2247l893.66,252.14,898.8-253.86L2199,.86ZM1831,2124.36l-723,198.11v-3l-6.85,1.86V198.67h900.51l-.1,1.16h.1Z"/><path id="path5117" class="cls-3" d="M2001.71,198.67H1101.2v1.16h900.41ZM1108.05,2319.45,1101.2,199.83V2321.31Z"/><polygon class="cls-3" points="2001.61 199.83 1831.04 2123.2 1108.05 2319.45 1101.2 199.83 2001.61 199.83"/><polygon class="cls-4" points="1775.87 726.67 718.6 726.67 750.51 1020.91 1752.87 1020.91 1687.3 1859.72 1099.49 2046.08 511.68 1859.72 477.42 1421.49 785.95 1421.49 785.95 1636.45 1107.74 1722.81 1427.59 1636.45 1452.41 1293.87 467.45 1293.87 402.05 457.25 1796.92 457.25 1775.87 726.67"/></g></g></svg>