<svg xmlns="http://www.w3.org/2000/svg" viewBox="0 0 2198.97 2499.14"><defs><style>.cls-1{fill:#a3a29f;}.cls-2{fill:#ebebeb;fill-opacity:0;isolation:isolate;opacity:0.99;}.cls-3{fill:#e32c51;}.cls-4{fill:#ddd;}</style></defs><g id="Calque_2" data-name="Calque 2"><g id="svg4525"><path id="path5113" class="cls-1" d="M0,0,204.12,2247l893.65,252.14,898.8-253.86L2199,.86ZM1017.15,1955.4,372.21,1781.3v-.3l-.85-263,39.35,10.73.31.09,363.25,99.06,20.77,5.67.85.23v-.3l2.52-1129.11v-1.59l.05-20.24V482h218.69Zm813.9,169-723,198.11v-3L1101.2,199.83h900.52Z"/><path id="path5159" class="cls-2" d="M945.11,1933.66c-28.3-8.58-168.09-46.31-310.46-84.9L376.5,1779.29V1649.78c0-126.93,0-129.5,12.87-125.21,6.86,2.57,101.2,28.3,209.26,58.32l196.4,54,1.71-574.61,1.72-574.62h214.41v730.7c0,580.62-1.72,730.71-7.72,730.71-4.29-.86-31.73-7.72-60-15.44Z"/><path id="path5157" class="cls-3" d="M372.21,1781l-.85-263.29s271,76.33,424.53,115.78l2.57-1150.94h218.69V1955.1L372.21,1781Z"/><path id="path5117" class="cls-4" d="M1101.2,198.67V2321.31l6.85-1.86,723-196.25L2001.62,199.83l.1-1.16Zm771.87,545.45-466.55,1.72v384.22l437.39-48.89-59.17,719.56L1192.11,1955.1l-4.29-260.72,428.82-114.06,6-212.7-425.38,72.9-9.44-955.4,704.12-3.43Z"/><polygon class="cls-3" points="1406.52 745.84 1406.52 1130.06 1843.91 1081.17 1784.74 1800.73 1192.11 1955.1 1187.82 1694.38 1616.64 1580.32 1622.64 1367.62 1197.26 1440.52 1187.82 485.12 1891.94 481.69 1873.07 744.12 1406.52 745.84"/></g></g></svg>